<?xml version="1.0" encoding="utf-8"?>
<!-- Generator: Adobe Illustrator 16.0.0, SVG Export Plug-In . SVG Version: 6.00 Build 0)  -->
<!DOCTYPE svg PUBLIC "-//W3C//DTD SVG 1.1//EN" "http://www.w3.org/Graphics/SVG/1.1/DTD/svg11.dtd">
<svg version="1.1" id="Layer_1" xmlns="http://www.w3.org/2000/svg" xmlns:xlink="http://www.w3.org/1999/xlink" x="0px" y="0px"
	 width="425px" height="400px" viewBox="-56.966 -98.111 425 400" enable-background="new -56.966 -98.111 425 400"
	 xml:space="preserve">
<g>
	<g>
		<path id="A_9_" fill-rule="evenodd" clip-rule="evenodd" fill="#080808" d="M304.202,239.086l0.012,5.879
			c-3.85-4.017-9.45-6.361-15.584-5.813c-9.333,0.827-16.795,8.532-17.311,17.839c-0.612,10.979,8.162,20.075,19.067,20.075
			c5.436,0,10.349-2.258,13.827-5.894v5.897h6.427v-34.557L304.202,239.086z M292.515,270.37
			c-8.595,1.402-15.902-5.876-14.494-14.416c0.853-5.172,5.047-9.344,10.244-10.191c8.586-1.397,15.899,5.88,14.488,14.42
			C301.904,265.352,297.707,269.526,292.515,270.37z"/>
		<polygon id="T_9_" fill-rule="evenodd" clip-rule="evenodd" fill="#080808" points="271.223,239.739 266.951,239.739 
			266.951,220.339 260.524,220.339 260.524,239.739 257.398,239.739 257.398,246.137 260.524,246.137 260.524,277.226 
			266.951,277.226 266.951,246.137 271.223,246.137 		"/>
		<polygon id="N_9_" fill-rule="evenodd" clip-rule="evenodd" fill="#080808" points="248.885,234.813 248.885,262.306 
			232.488,238.061 232.488,238.053 226.058,238.053 226.058,277.069 232.488,277.069 232.488,249.666 248.832,273.827 
			248.885,273.787 248.885,273.827 255.317,273.827 255.317,234.813 		"/>
		<path id="O_27_" fill-rule="evenodd" clip-rule="evenodd" fill="#080808" d="M206.827,239.17
			c-12.081-1.196-22.157,8.821-20.958,20.842c0.889,8.889,8.114,16.079,17.051,16.959c12.077,1.19,22.145-8.817,20.952-20.831
			C222.994,247.249,215.768,240.057,206.827,239.17z M206.993,270.372c-8.586,1.401-15.899-5.878-14.491-14.417
			c0.85-5.171,5.045-9.342,10.242-10.192c8.586-1.399,15.905,5.879,14.496,14.42C216.388,265.354,212.193,269.526,206.993,270.372z"
			/>
		<path id="D_9_" fill-rule="evenodd" clip-rule="evenodd" fill="#080808" d="M176.738,218.845l0.514,26.12
			c-3.847-4.018-9.453-6.361-15.587-5.813c-9.335,0.827-16.796,8.537-17.31,17.847c-0.605,10.978,8.167,20.071,19.07,20.071
			c5.44,0,10.349-2.262,13.827-5.897v5.897h6.43v-58.225H176.738z M165.547,270.37c-8.583,1.403-15.902-5.876-14.492-14.416
			c0.858-5.172,5.047-9.344,10.248-10.191c8.583-1.397,15.896,5.879,14.488,14.42C174.938,265.352,170.746,269.526,165.547,270.37z"
			/>
		<path id="O_26_" fill-rule="evenodd" clip-rule="evenodd" fill="#080808" d="M125.09,239.248
			c-12.08-1.191-22.147,8.821-20.954,20.836c0.886,8.891,8.115,16.083,17.052,16.965c12.079,1.189,22.152-8.822,20.955-20.837
			C141.257,247.321,134.028,240.129,125.09,239.248z M125.269,270.448c-8.583,1.406-15.901-5.865-14.498-14.406
			c0.846-5.172,5.038-9.348,10.239-10.196c8.588-1.402,15.907,5.873,14.499,14.413C134.656,265.43,130.468,269.601,125.269,270.448z
			"/>
		<polygon id="X_9_" fill-rule="evenodd" clip-rule="evenodd" fill="#080808" points="101.951,239.234 95.448,234.704 
			85.357,249.041 75.263,234.704 68.764,239.234 80.511,255.925 68.764,272.616 75.263,277.144 85.357,262.81 95.448,277.144 
			101.951,272.616 90.204,255.925 		"/>
		<path id="O_25_" fill-rule="evenodd" clip-rule="evenodd" fill="#080808" d="M49.522,239.248
			c-12.082-1.188-22.147,8.823-20.952,20.836c0.887,8.893,8.118,16.083,17.055,16.965c12.079,1.189,22.145-8.825,20.951-20.84
			C65.692,247.318,58.459,240.127,49.522,239.248z M49.699,270.45c-8.58,1.4-15.896-5.867-14.497-14.403
			c0.847-5.173,5.035-9.347,10.236-10.201c8.589-1.408,15.914,5.873,14.502,14.419C59.088,265.434,54.895,269.601,49.699,270.45z"/>
		<rect id="L_9_" x="19.958" y="218.845" fill-rule="evenodd" clip-rule="evenodd" fill="#080808" width="6.429" height="58.299"/>
	</g>
</g>
<g>
	<path fill="#080808" d="M115.458,288.579c-0.081-0.287-0.197-0.538-0.348-0.76c-0.148-0.223-0.332-0.408-0.545-0.564
		c-0.215-0.153-0.458-0.273-0.733-0.357c-0.274-0.08-0.574-0.121-0.905-0.121c-0.619,0-1.162,0.153-1.626,0.458
		c-0.466,0.308-0.832,0.748-1.089,1.33c-0.261,0.58-0.39,1.29-0.39,2.128c0,0.839,0.127,1.551,0.384,2.137
		c0.255,0.588,0.618,1.035,1.085,1.342c0.468,0.309,1.022,0.461,1.658,0.461c0.58,0,1.074-0.102,1.486-0.307
		c0.411-0.204,0.726-0.496,0.945-0.873c0.217-0.376,0.327-0.82,0.327-1.334l0.519,0.078h-3.116v-1.916h5.059v1.517
		c0,1.058-0.223,1.964-0.672,2.723c-0.45,0.757-1.067,1.34-1.852,1.75c-0.789,0.409-1.69,0.612-2.705,0.612
		c-1.135,0-2.129-0.249-2.988-0.748c-0.858-0.498-1.526-1.209-2.003-2.131c-0.478-0.923-0.717-2.018-0.717-3.287
		c0-0.974,0.142-1.844,0.429-2.608c0.286-0.768,0.685-1.415,1.201-1.948c0.513-0.53,1.114-0.938,1.798-1.215
		c0.685-0.278,1.428-0.417,2.227-0.417c0.686,0,1.322,0.1,1.912,0.295c0.591,0.2,1.116,0.479,1.574,0.837
		c0.458,0.362,0.832,0.79,1.125,1.286c0.291,0.492,0.479,1.038,0.561,1.634H115.458z"/>
	<path fill="#080808" d="M121.792,296.718h-2.739l4.172-12.025h3.296l4.166,12.025h-2.738l-3.028-9.277h-0.096L121.792,296.718z
		 M121.622,291.991h6.468v1.984h-6.468V291.991z"/>
	<path fill="#080808" d="M132.141,284.692h3.152l3.33,8.078h0.142l3.33-8.078h3.151v12.025h-2.479v-7.827h-0.101l-3.126,7.769
		h-1.688l-3.129-7.798h-0.1v7.856h-2.48V284.692z"/>
	<path fill="#080808" d="M147.347,296.718v-12.025h8.148v2.096h-5.59v2.866h5.17v2.096h-5.17v2.872h5.611v2.096H147.347z"/>
	<path fill="#080808" d="M167.943,288.149c-0.046-0.472-0.248-0.842-0.607-1.104c-0.357-0.262-0.844-0.393-1.459-0.393
		c-0.414,0-0.768,0.059-1.055,0.173c-0.29,0.115-0.508,0.275-0.658,0.48c-0.153,0.202-0.229,0.432-0.229,0.69
		c-0.005,0.217,0.038,0.404,0.14,0.565c0.102,0.159,0.24,0.299,0.417,0.412c0.177,0.118,0.384,0.216,0.612,0.301
		c0.234,0.084,0.48,0.155,0.744,0.214l1.088,0.259c0.527,0.115,1.012,0.275,1.451,0.47c0.438,0.197,0.824,0.437,1.146,0.721
		c0.32,0.286,0.573,0.624,0.75,1.013c0.18,0.386,0.272,0.831,0.275,1.332c-0.003,0.733-0.191,1.372-0.563,1.911
		c-0.374,0.539-0.906,0.956-1.605,1.25c-0.699,0.295-1.539,0.444-2.525,0.444c-0.977,0-1.826-0.149-2.545-0.448
		c-0.725-0.295-1.284-0.738-1.689-1.32c-0.403-0.586-0.615-1.313-0.639-2.178h2.479c0.026,0.402,0.143,0.739,0.352,1.006
		c0.205,0.27,0.483,0.47,0.832,0.605c0.348,0.137,0.742,0.203,1.182,0.203c0.432,0,0.81-0.063,1.131-0.188
		c0.322-0.125,0.571-0.299,0.748-0.521c0.177-0.224,0.264-0.48,0.264-0.77c0-0.27-0.078-0.497-0.238-0.68
		c-0.162-0.187-0.394-0.343-0.695-0.472c-0.307-0.129-0.681-0.248-1.121-0.353l-1.316-0.328c-1.018-0.247-1.824-0.632-2.412-1.159
		c-0.592-0.522-0.883-1.229-0.881-2.119c-0.002-0.727,0.191-1.363,0.588-1.908c0.395-0.543,0.939-0.967,1.633-1.273
		c0.692-0.305,1.48-0.458,2.359-0.458c0.898,0,1.682,0.153,2.354,0.458c0.67,0.307,1.194,0.73,1.568,1.273
		c0.375,0.545,0.565,1.176,0.577,1.891H167.943z"/>
	<path fill="#080808" d="M171.811,286.788v-2.096h9.929v2.096h-3.702v9.93h-2.525v-9.93H171.811z"/>
	<path fill="#080808" d="M190.848,284.692h2.556v7.809c0,0.879-0.208,1.646-0.626,2.302c-0.424,0.658-1.006,1.171-1.756,1.537
		c-0.754,0.365-1.629,0.549-2.63,0.549c-1.002,0-1.881-0.184-2.632-0.549c-0.754-0.366-1.336-0.879-1.754-1.537
		c-0.417-0.656-0.625-1.423-0.625-2.302v-7.809h2.557v7.594c0,0.456,0.1,0.863,0.307,1.22c0.2,0.354,0.487,0.637,0.854,0.84
		c0.372,0.202,0.801,0.305,1.293,0.305c0.495,0,0.931-0.103,1.296-0.305c0.369-0.203,0.656-0.485,0.855-0.84
		c0.202-0.356,0.305-0.764,0.305-1.22V284.692z"/>
	<path fill="#080808" d="M199.793,296.718h-4.285v-12.025h4.32c1.214,0,2.26,0.24,3.143,0.719c0.875,0.479,1.551,1.169,2.024,2.064
		c0.476,0.897,0.714,1.969,0.714,3.217c0,1.254-0.238,2.331-0.714,3.229c-0.474,0.901-1.153,1.592-2.034,2.073
		C202.077,296.479,201.021,296.718,199.793,296.718z M198.059,294.54h1.627c0.753,0,1.391-0.135,1.906-0.402
		c0.52-0.268,0.911-0.687,1.172-1.252c0.264-0.566,0.394-1.297,0.394-2.193c0-0.89-0.13-1.614-0.394-2.178
		c-0.261-0.564-0.652-0.979-1.168-1.246c-0.514-0.267-1.147-0.398-1.904-0.398h-1.633V294.54z"/>
	<path fill="#080808" d="M210.153,284.692v12.025h-2.558v-12.025H210.153z"/>
	<path fill="#080808" d="M223.371,290.706c0,1.312-0.249,2.426-0.748,3.347c-0.498,0.919-1.177,1.619-2.031,2.104
		c-0.855,0.483-1.815,0.725-2.885,0.725c-1.072,0-2.037-0.241-2.891-0.729c-0.854-0.484-1.53-1.188-2.025-2.106
		c-0.496-0.921-0.745-2.035-0.745-3.341c0-1.313,0.249-2.428,0.745-3.349c0.495-0.92,1.171-1.622,2.025-2.105
		c0.854-0.484,1.818-0.725,2.891-0.725c1.069,0,2.029,0.24,2.885,0.725c0.854,0.483,1.533,1.186,2.031,2.105
		C223.122,288.278,223.371,289.394,223.371,290.706z M220.776,290.706c0-0.852-0.124-1.567-0.379-2.149
		c-0.255-0.585-0.612-1.027-1.073-1.328c-0.458-0.302-0.997-0.452-1.617-0.452c-0.617,0-1.156,0.15-1.618,0.452
		c-0.457,0.301-0.816,0.743-1.069,1.328c-0.255,0.582-0.379,1.298-0.379,2.149c0,0.85,0.124,1.566,0.379,2.148
		c0.253,0.584,0.612,1.023,1.069,1.327c0.462,0.303,1.001,0.45,1.618,0.45c0.62,0,1.159-0.147,1.617-0.45
		c0.461-0.304,0.818-0.743,1.073-1.327C220.652,292.272,220.776,291.556,220.776,290.706z"/>
</g>
<linearGradient id="SVGID_1_" gradientUnits="userSpaceOnUse" x1="-54.1968" y1="52.3188" x2="365.2646" y2="52.3188">
	<stop  offset="0" style="stop-color:#7EA5BC"/>
	<stop  offset="0.3827" style="stop-color:#789DB6"/>
	<stop  offset="0.9774" style="stop-color:#6887A5"/>
	<stop  offset="1" style="stop-color:#6786A4"/>
</linearGradient>
<path fill="url(#SVGID_1_)" d="M266.451,8.017c-33.248,0.057-64.138,10.174-89.708,27.49c-3.406-0.445-6.857-0.668-10.372-0.668
	c-19.659,0-37.678,7.061-51.621,18.78c-1.71,1.743-3.525,3.407-5.397,4.977c-13.955,11.72-31.974,18.79-51.656,18.79
	c-44.303,0-80.211-35.825-80.211-80.035c0-44.197,35.909-80.036,80.211-80.036c7.458,0,14.659,1.008,21.497,2.903
	C69.37-86.409,57.51-90.284,44.737-90.284c-54.677,0-98.934,44.128-98.934,98.673c0.187,80.436,59.7,146.855,137.243,158.051
	c7.573,1.083,15.324,1.661,23.216,1.661c0-0.072,0-0.142,0-0.213c14.692,16.594,36.187,27.034,60.108,27.034
	c34.176,0,63.377-21.333,74.931-51.374c4.659,1.25,9.262,2.731,13.79,4.402c9.029,3.337,17.774,7.504,26.144,12.465
	c1.98,1.178,3.934,2.391,5.867,3.665c0.012-0.008,0.012,0,0.026,0.013c4.994,2.508,10.63,3.949,16.602,4.008h0.373
	c33.832-0.213,61.161-27.596,61.161-61.407C365.265,52.189,321.079,8.073,266.451,8.017z"/>
</svg>
